<svg width="44" height="44" viewBox="0 0 44 44" fill="none" xmlns="http://www.w3.org/2000/svg">
<path d="M19.959 6.12377C19.9614 5.94405 20.0338 5.77234 20.1609 5.64525C20.288 5.51815 20.4597 5.44571 20.6395 5.44336C20.8192 5.44571 20.9909 5.51815 21.118 5.64525C21.2451 5.77234 21.3175 5.94405 21.3199 6.12377C21.3175 6.3035 21.2451 6.4752 21.118 6.6023C20.9909 6.72939 20.8192 6.80183 20.6395 6.80418C20.4597 6.80183 20.288 6.72939 20.1609 6.6023C20.0338 6.4752 19.9614 6.3035 19.959 6.12377ZM17.2374 6.12377C17.2374 5.94332 17.3091 5.77025 17.4367 5.64265C17.5643 5.51505 17.7374 5.44336 17.9178 5.44336C18.0975 5.44571 18.2692 5.51815 18.3963 5.64525C18.5234 5.77234 18.5959 5.94405 18.5982 6.12377C18.5959 6.3035 18.5234 6.4752 18.3963 6.6023C18.2692 6.72939 18.0975 6.80183 17.9178 6.80418C17.7374 6.80418 17.5643 6.7325 17.4367 6.6049C17.3091 6.47729 17.2374 6.30423 17.2374 6.12377ZM14.5157 6.12377C14.5157 5.94332 14.5874 5.77025 14.715 5.64265C14.8426 5.51505 15.0157 5.44336 15.1962 5.44336C15.3759 5.44571 15.5476 5.51815 15.6747 5.64525C15.8018 5.77234 15.8742 5.94405 15.8766 6.12377C15.8742 6.3035 15.8018 6.4752 15.6747 6.6023C15.5476 6.72939 15.3759 6.80183 15.1962 6.80418C15.0157 6.80418 14.8426 6.7325 14.715 6.6049C14.5874 6.47729 14.5157 6.30423 14.5157 6.12377ZM11.7941 6.12377C11.7941 5.94332 11.8658 5.77025 11.9934 5.64265C12.121 5.51505 12.2941 5.44336 12.4745 5.44336C12.6542 5.44571 12.8259 5.51815 12.953 5.64525C13.0801 5.77234 13.1526 5.94405 13.1549 6.12377C13.1526 6.3035 13.0801 6.4752 12.953 6.6023C12.8259 6.72939 12.6542 6.80183 12.4745 6.80418C12.2941 6.80418 12.121 6.7325 11.9934 6.6049C11.8658 6.47729 11.7941 6.30423 11.7941 6.12377ZM9.07245 6.12377C9.07245 5.94332 9.14413 5.77025 9.27174 5.64265C9.39934 5.51505 9.5724 5.44336 9.75286 5.44336C9.93259 5.44571 10.1043 5.51815 10.2314 5.64525C10.3585 5.77234 10.4309 5.94405 10.4333 6.12377C10.4309 6.3035 10.3585 6.4752 10.2314 6.6023C10.1043 6.72939 9.93259 6.80183 9.75286 6.80418C9.5724 6.80418 9.39934 6.7325 9.27174 6.6049C9.14413 6.47729 9.07245 6.30423 9.07245 6.12377Z" fill="#F9C409"/>
<path d="M36.2888 33.3402C36.2912 33.1605 36.3636 32.9888 36.4907 32.8617C36.6178 32.7346 36.7895 32.6622 36.9692 32.6598C37.149 32.6622 37.3207 32.7346 37.4478 32.8617C37.5749 32.9888 37.6473 33.1605 37.6496 33.3402C37.6473 33.52 37.5749 33.6917 37.4478 33.8188C37.3207 33.9459 37.149 34.0183 36.9692 34.0206C36.7895 34.0183 36.6178 33.9459 36.4907 33.8188C36.3636 33.6917 36.2912 33.52 36.2888 33.3402ZM36.2888 30.6186C36.2888 30.4381 36.3605 30.2651 36.4881 30.1375C36.6157 30.0099 36.7888 29.9382 36.9692 29.9382C37.1497 29.9382 37.3228 30.0099 37.4504 30.1375C37.578 30.2651 37.6496 30.4381 37.6496 30.6186C37.6473 30.7983 37.5749 30.97 37.4478 31.0971C37.3207 31.2242 37.149 31.2966 36.9692 31.299C36.7895 31.2966 36.6178 31.2242 36.4907 31.0971C36.3636 30.97 36.2912 30.7983 36.2888 30.6186ZM36.2888 27.8969C36.2888 27.7165 36.3605 27.5434 36.4881 27.4158C36.6157 27.2882 36.7888 27.2165 36.9692 27.2165C37.1497 27.2165 37.3228 27.2882 37.4504 27.4158C37.578 27.5434 37.6496 27.7165 37.6496 27.8969C37.6473 28.0767 37.5749 28.2484 37.4478 28.3755C37.3207 28.5026 37.149 28.575 36.9692 28.5773C36.7895 28.575 36.6178 28.5026 36.4907 28.3755C36.3636 28.2484 36.2912 28.0767 36.2888 27.8969ZM36.2888 25.1753C36.2912 24.9956 36.3636 24.8239 36.4907 24.6968C36.6178 24.5697 36.7895 24.4972 36.9692 24.4949C37.149 24.4972 37.3207 24.5697 37.4478 24.6968C37.5749 24.8239 37.6473 24.9956 37.6496 25.1753C37.6496 25.3557 37.578 25.5288 37.4504 25.6564C37.3228 25.784 37.1497 25.8557 36.9692 25.8557C36.7888 25.8557 36.6157 25.784 36.4881 25.6564C36.3605 25.5288 36.2888 25.3557 36.2888 25.1753Z" fill="#F9C409"/>
<path d="M14.5157 33.1951C14.5157 33.1061 14.5334 33.0181 14.5677 32.936C14.602 32.854 14.6523 32.7796 14.7156 32.7171C14.7789 32.6546 14.854 32.6054 14.9365 32.5722C15.019 32.539 15.1072 32.5225 15.1962 32.5237C15.3751 32.5237 15.5468 32.5941 15.6741 32.7198C15.8014 32.8454 15.8742 33.0162 15.8766 33.1951C15.8766 33.3755 15.8049 33.5486 15.6773 33.6762C15.5497 33.8038 15.3766 33.8755 15.1962 33.8755C15.1065 33.8767 15.0174 33.8599 14.9343 33.8262C14.8512 33.7924 14.7757 33.7423 14.7123 33.6789C14.6489 33.6155 14.5988 33.54 14.5651 33.4569C14.5313 33.3738 14.5145 33.2847 14.5157 33.1951ZM14.5157 30.4734C14.5157 30.3845 14.5334 30.2964 14.5677 30.2144C14.602 30.1323 14.6523 30.0579 14.7156 29.9955C14.7789 29.933 14.854 29.8837 14.9365 29.8505C15.019 29.8173 15.1072 29.8009 15.1962 29.8021C15.3751 29.802 15.5468 29.8725 15.6741 29.9981C15.8014 30.1238 15.8742 30.2945 15.8766 30.4734C15.8766 30.6539 15.8049 30.8269 15.6773 30.9545C15.5497 31.0821 15.3766 31.1538 15.1962 31.1538C15.1065 31.155 15.0174 31.1383 14.9343 31.1045C14.8512 31.0707 14.7757 31.0207 14.7123 30.9572C14.6489 30.8938 14.5988 30.8183 14.5651 30.7352C14.5313 30.6521 14.5145 30.5631 14.5157 30.4734ZM14.5157 27.7518C14.5157 27.6628 14.5334 27.5748 14.5677 27.4927C14.602 27.4107 14.6523 27.3363 14.7156 27.2738C14.7789 27.2113 14.854 27.1621 14.9365 27.1289C15.019 27.0957 15.1072 27.0792 15.1962 27.0804C15.3751 27.0804 15.5468 27.1508 15.6741 27.2765C15.8014 27.4021 15.8742 27.5729 15.8766 27.7518C15.8766 27.9322 15.8049 28.1053 15.6773 28.2329C15.5497 28.3605 15.3766 28.4322 15.1962 28.4322C15.1065 28.4334 15.0174 28.4166 14.9343 28.3829C14.8512 28.3491 14.7757 28.299 14.7123 28.2356C14.6489 28.1722 14.5988 28.0967 14.5651 28.0136C14.5313 27.9305 14.5145 27.8414 14.5157 27.7518ZM14.5157 25.0301C14.5157 24.8496 14.5874 24.6766 14.715 24.549C14.8426 24.4214 15.0157 24.3497 15.1962 24.3497C15.3759 24.352 15.5476 24.4245 15.6747 24.5516C15.8018 24.6787 15.8742 24.8504 15.8766 25.0301C15.8766 25.2106 15.8049 25.3836 15.6773 25.5112C15.5497 25.6388 15.3766 25.7105 15.1962 25.7105C15.1065 25.7117 15.0174 25.695 14.9343 25.6612C14.8512 25.6274 14.7757 25.5774 14.7123 25.514C14.6489 25.4505 14.5988 25.375 14.5651 25.2919C14.5313 25.2088 14.5145 25.1198 14.5157 25.0301ZM14.5157 22.3085C14.5157 22.128 14.5874 21.9549 14.715 21.8273C14.8426 21.6997 15.0157 21.628 15.1962 21.628C15.3759 21.6304 15.5476 21.7028 15.6747 21.8299C15.8018 21.957 15.8742 22.1287 15.8766 22.3085C15.8766 22.4898 15.8052 22.6638 15.6778 22.7928C15.5505 22.9219 15.3774 22.9956 15.1962 22.9979C15.106 22.9979 15.0168 22.9801 14.9337 22.9453C14.8505 22.9105 14.7751 22.8596 14.7118 22.7955C14.6485 22.7313 14.5986 22.6552 14.5649 22.5716C14.5313 22.488 14.5145 22.3986 14.5157 22.3085ZM14.5157 19.5868C14.5157 19.4063 14.5874 19.2333 14.715 19.1057C14.8426 18.9781 15.0157 18.9064 15.1962 18.9064C15.3759 18.9087 15.5476 18.9812 15.6747 19.1083C15.8018 19.2354 15.8742 19.4071 15.8766 19.5868C15.8766 19.7681 15.8052 19.9421 15.6778 20.0712C15.5505 20.2002 15.3774 20.2739 15.1962 20.2763C15.106 20.2763 15.0168 20.2584 14.9337 20.2236C14.8505 20.1889 14.7751 20.138 14.7118 20.0738C14.6485 20.0097 14.5986 19.9336 14.5649 19.85C14.5313 19.7664 14.5145 19.6769 14.5157 19.5868ZM14.5157 16.8652C14.5157 16.6847 14.5874 16.5116 14.715 16.384C14.8426 16.2564 15.0157 16.1847 15.1962 16.1847C15.3759 16.1871 15.5476 16.2595 15.6747 16.3866C15.8018 16.5137 15.8742 16.6854 15.8766 16.8652C15.8766 17.0465 15.8052 17.2205 15.6778 17.3495C15.5505 17.4786 15.3774 17.5523 15.1962 17.5546C15.106 17.5547 15.0168 17.5368 14.9337 17.502C14.8505 17.4672 14.7751 17.4163 14.7118 17.3522C14.6485 17.288 14.5986 17.2119 14.5649 17.1283C14.5313 17.0447 14.5145 16.9553 14.5157 16.8652ZM14.5157 14.1435C14.5157 13.9631 14.5874 13.79 14.715 13.6624C14.8426 13.5348 15.0157 13.4631 15.1962 13.4631C15.3759 13.4654 15.5476 13.5379 15.6747 13.665C15.8018 13.7921 15.8742 13.9638 15.8766 14.1435C15.8766 14.3248 15.8052 14.4988 15.6778 14.6279C15.5505 14.7569 15.3774 14.8306 15.1962 14.833C15.106 14.833 15.0168 14.8151 14.9337 14.7803C14.8505 14.7456 14.7751 14.6947 14.7118 14.6305C14.6485 14.5664 14.5986 14.4903 14.5649 14.4067C14.5313 14.3231 14.5145 14.2336 14.5157 14.1435ZM14.5157 11.4219C14.5157 11.2414 14.5874 11.0683 14.715 10.9407C14.8426 10.8131 15.0157 10.7414 15.1962 10.7414C15.3759 10.7438 15.5476 10.8162 15.6747 10.9433C15.8018 11.0704 15.8742 11.2421 15.8766 11.4219C15.8766 11.6032 15.8052 11.7772 15.6778 11.9062C15.5505 12.0353 15.3774 12.109 15.1962 12.1113C15.106 12.1114 15.0168 12.0935 14.9337 12.0587C14.8505 12.0239 14.7751 11.973 14.7118 11.9089C14.6485 11.8447 14.5986 11.7686 14.5649 11.685C14.5313 11.6014 14.5145 11.512 14.5157 11.4219ZM14.5157 8.70021C14.5145 8.6101 14.5313 8.52064 14.5649 8.43704C14.5986 8.35344 14.6485 8.27736 14.7118 8.21321C14.7751 8.14906 14.8505 8.09813 14.9337 8.06337C15.0168 8.02861 15.106 8.01072 15.1962 8.01073C15.3774 8.01311 15.5505 8.08681 15.6778 8.21585C15.8052 8.3449 15.8766 8.51891 15.8766 8.70021C15.8742 8.87994 15.8018 9.05164 15.6747 9.17874C15.5476 9.30583 15.3759 9.37827 15.1962 9.38062C15.0173 9.38064 14.8456 9.3102 14.7182 9.18455C14.5909 9.05891 14.5181 8.88816 14.5157 8.70928V8.70021ZM14.5157 5.97856C14.5145 5.88845 14.5313 5.79899 14.5649 5.71539C14.5986 5.63179 14.6485 5.55571 14.7118 5.49156C14.7751 5.42742 14.8505 5.37648 14.9337 5.34172C15.0168 5.30696 15.106 5.28907 15.1962 5.28908C15.3774 5.29146 15.5505 5.36516 15.6778 5.4942C15.8052 5.62325 15.8766 5.79726 15.8766 5.97856C15.8742 6.15829 15.8018 6.32999 15.6747 6.45709C15.5476 6.58418 15.3759 6.65662 15.1962 6.65897C15.0173 6.65899 14.8456 6.58855 14.7182 6.4629C14.5909 6.33726 14.5181 6.16651 14.5157 5.98763V5.97856ZM14.5157 3.25691C14.5157 3.16798 14.5334 3.07994 14.5677 2.99789C14.602 2.91584 14.6523 2.84143 14.7156 2.77897C14.7789 2.71651 14.854 2.66725 14.9365 2.63405C15.019 2.60085 15.1072 2.58437 15.1962 2.58557C15.3766 2.58557 15.5497 2.65726 15.6773 2.78486C15.8049 2.91246 15.8766 3.08553 15.8766 3.26598C15.8742 3.44571 15.8018 3.61741 15.6747 3.74451C15.5476 3.87161 15.3759 3.94405 15.1962 3.9464C15.0157 3.9464 14.8426 3.87471 14.715 3.74711C14.5874 3.61951 14.5157 3.44644 14.5157 3.26598V3.25691Z" fill="#F9C409"/>
<path d="M41.7322 27.8969C41.7322 27.7164 41.8039 27.5434 41.9315 27.4158C42.0591 27.2882 42.2322 27.2165 42.4127 27.2165C42.5924 27.2188 42.7641 27.2913 42.8912 27.4184C43.0183 27.5455 43.0907 27.7172 43.0931 27.8969C43.0931 28.0774 43.0214 28.2504 42.8938 28.378C42.7662 28.5056 42.5931 28.5773 42.4127 28.5773C42.323 28.5785 42.2339 28.5618 42.1508 28.528C42.0677 28.4942 41.9922 28.4442 41.9288 28.3807C41.8654 28.3173 41.8153 28.2418 41.7816 28.1587C41.7478 28.0756 41.731 27.9866 41.7322 27.8969ZM39.0106 27.8969C39.0106 27.7164 39.0823 27.5434 39.2099 27.4158C39.3375 27.2882 39.5105 27.2165 39.691 27.2165C39.8707 27.2188 40.0424 27.2913 40.1695 27.4184C40.2966 27.5455 40.3691 27.7172 40.3714 27.8969C40.3714 28.0774 40.2997 28.2504 40.1721 28.378C40.0445 28.5056 39.8715 28.5773 39.691 28.5773C39.6013 28.5785 39.5123 28.5618 39.4292 28.528C39.3461 28.4942 39.2706 28.4442 39.2072 28.3807C39.1437 28.3173 39.0937 28.2418 39.0599 28.1587C39.0261 28.0756 39.0094 27.9866 39.0106 27.8969ZM36.2889 27.8969C36.2913 27.7172 36.3637 27.5455 36.4908 27.4184C36.6179 27.2913 36.7896 27.2188 36.9694 27.2165C37.1491 27.2188 37.3208 27.2913 37.4479 27.4184C37.575 27.5455 37.6474 27.7172 37.6498 27.8969C37.6498 28.0774 37.5781 28.2504 37.4505 28.378C37.3229 28.5056 37.1498 28.5773 36.9694 28.5773C36.7889 28.5773 36.6158 28.5056 36.4882 28.378C36.3606 28.2504 36.2889 28.0774 36.2889 27.8969ZM33.5673 27.8969C33.5696 27.7172 33.6421 27.5455 33.7692 27.4184C33.8963 27.2913 34.068 27.2188 34.2477 27.2165C34.4274 27.2188 34.5991 27.2913 34.7262 27.4184C34.8533 27.5455 34.9258 27.7172 34.9281 27.8969C34.9281 28.0774 34.8564 28.2504 34.7288 28.378C34.6012 28.5056 34.4282 28.5773 34.2477 28.5773C34.0672 28.5773 33.8942 28.5056 33.7666 28.378C33.639 28.2504 33.5673 28.0774 33.5673 27.8969ZM30.8456 27.8969C30.8456 27.7164 30.9173 27.5434 31.0449 27.4158C31.1725 27.2882 31.3456 27.2165 31.5261 27.2165C31.7058 27.2188 31.8775 27.2913 32.0046 27.4184C32.1317 27.5455 32.2041 27.7172 32.2065 27.8969C32.2065 28.0774 32.1348 28.2504 32.0072 28.378C31.8796 28.5056 31.7065 28.5773 31.5261 28.5773C31.4364 28.5785 31.3473 28.5618 31.2642 28.528C31.1811 28.4942 31.1056 28.4442 31.0422 28.3807C30.9788 28.3173 30.9287 28.2418 30.895 28.1587C30.8612 28.0756 30.8444 27.9866 30.8456 27.8969ZM28.124 27.8969C28.124 27.7164 28.1957 27.5434 28.3233 27.4158C28.4509 27.2882 28.624 27.2165 28.8044 27.2165C28.9841 27.2188 29.1558 27.2913 29.2829 27.4184C29.41 27.5455 29.4825 27.7172 29.4848 27.8969C29.4848 28.0774 29.4131 28.2504 29.2855 28.378C29.1579 28.5056 28.9849 28.5773 28.8044 28.5773C28.7147 28.5785 28.6257 28.5618 28.5426 28.528C28.4595 28.4942 28.384 28.4442 28.3206 28.3807C28.2571 28.3173 28.2071 28.2418 28.1733 28.1587C28.1395 28.0756 28.1228 27.9866 28.124 27.8969ZM25.4023 27.8969C25.4047 27.7172 25.4771 27.5455 25.6042 27.4184C25.7313 27.2913 25.903 27.2188 26.0828 27.2165C26.2625 27.2188 26.4342 27.2913 26.5613 27.4184C26.6884 27.5455 26.7608 27.7172 26.7632 27.8969C26.7632 28.0774 26.6915 28.2504 26.5639 28.378C26.4363 28.5056 26.2632 28.5773 26.0828 28.5773C25.9023 28.5773 25.7292 28.5056 25.6016 28.378C25.474 28.2504 25.4023 28.0774 25.4023 27.8969ZM22.6807 27.8969C22.683 27.7172 22.7555 27.5455 22.8826 27.4184C23.0097 27.2913 23.1814 27.2188 23.3611 27.2165C23.5408 27.2188 23.7125 27.2913 23.8396 27.4184C23.9667 27.5455 24.0392 27.7172 24.0415 27.8969C24.0415 28.0774 23.9698 28.2504 23.8422 28.378C23.7146 28.5056 23.5416 28.5773 23.3611 28.5773C23.1807 28.5773 23.0076 28.5056 22.88 28.378C22.7524 28.2504 22.6807 28.0774 22.6807 27.8969ZM19.959 27.8969C19.9614 27.7172 20.0338 27.5455 20.1609 27.4184C20.288 27.2913 20.4597 27.2188 20.6395 27.2165C20.8192 27.2188 20.9909 27.2913 21.118 27.4184C21.2451 27.5455 21.3175 27.7172 21.3199 27.8969C21.3199 28.0774 21.2482 28.2504 21.1206 28.378C20.993 28.5056 20.8199 28.5773 20.6395 28.5773C20.459 28.5773 20.2859 28.5056 20.1583 28.378C20.0307 28.2504 19.959 28.0774 19.959 27.8969ZM17.2374 27.8969C17.2374 27.7164 17.3091 27.5434 17.4367 27.4158C17.5643 27.2882 17.7374 27.2165 17.9178 27.2165C18.0975 27.2188 18.2692 27.2913 18.3963 27.4184C18.5234 27.5455 18.5959 27.7172 18.5982 27.8969C18.5982 28.0774 18.5265 28.2504 18.3989 28.378C18.2713 28.5056 18.0983 28.5773 17.9178 28.5773C17.8281 28.5785 17.7391 28.5618 17.656 28.528C17.5729 28.4942 17.4974 28.4442 17.434 28.3807C17.3705 28.3173 17.3205 28.2418 17.2867 28.1587C17.2529 28.0756 17.2362 27.9866 17.2374 27.8969ZM14.5157 27.8969C14.5157 27.7164 14.5874 27.5434 14.715 27.4158C14.8426 27.2882 15.0157 27.2165 15.1962 27.2165C15.3759 27.2188 15.5476 27.2913 15.6747 27.4184C15.8018 27.5455 15.8742 27.7172 15.8766 27.8969C15.8766 28.0774 15.8049 28.2504 15.6773 28.378C15.5497 28.5056 15.3766 28.5773 15.1962 28.5773C15.1065 28.5785 15.0174 28.5618 14.9343 28.528C14.8512 28.4942 14.7757 28.4442 14.7123 28.3807C14.6489 28.3173 14.5988 28.2418 14.5651 28.1587C14.5313 28.0756 14.5145 27.9866 14.5157 27.8969ZM11.7941 27.8969C11.7964 27.7172 11.8689 27.5455 11.996 27.4184C12.1231 27.2913 12.2948 27.2188 12.4745 27.2165C12.655 27.2165 12.828 27.2882 12.9556 27.4158C13.0832 27.5434 13.1549 27.7164 13.1549 27.8969C13.1561 27.9866 13.1394 28.0756 13.1056 28.1587C13.0719 28.2418 13.0218 28.3173 12.9584 28.3807C12.8949 28.4442 12.8194 28.4942 12.7363 28.528C12.6532 28.5618 12.5642 28.5785 12.4745 28.5773C12.2941 28.5773 12.121 28.5056 11.9934 28.378C11.8658 28.2504 11.7941 28.0774 11.7941 27.8969ZM9.07245 27.8969C9.0748 27.7172 9.14724 27.5455 9.27434 27.4184C9.40143 27.2913 9.57314 27.2188 9.75286 27.2165C9.93259 27.2188 10.1043 27.2913 10.2314 27.4184C10.3585 27.5455 10.4309 27.7172 10.4333 27.8969C10.4333 28.0774 10.3616 28.2504 10.234 28.378C10.1064 28.5056 9.93332 28.5773 9.75286 28.5773C9.5724 28.5773 9.39934 28.5056 9.27174 28.378C9.14413 28.2504 9.07245 28.0774 9.07245 27.8969Z" fill="#F9C409"/>
<path d="M43.3196 34.9278H0.680412C0.499956 34.9278 0.326891 34.8562 0.199289 34.7286C0.0716864 34.601 0 34.4279 0 34.2474C0 34.067 0.0716864 33.8939 0.199289 33.7663C0.326891 33.6387 0.499956 33.567 0.680412 33.567H43.3196C43.5 33.567 43.6731 33.6387 43.8007 33.7663C43.9283 33.8939 44 34.067 44 34.2474C44 34.4279 43.9283 34.601 43.8007 34.7286C43.6731 34.8562 43.5 34.9278 43.3196 34.9278Z" fill="#F9C409"/>
<path d="M8.84533 43.0928C8.6656 43.0904 8.4939 43.018 8.3668 42.8909C8.23971 42.7638 8.16727 42.5921 8.16492 42.4124V0.680412C8.16492 0.499956 8.2366 0.326891 8.3642 0.199289C8.49181 0.0716864 8.66487 0 8.84533 0C9.02579 0 9.19885 0.0716864 9.32645 0.199289C9.45406 0.326891 9.52574 0.499956 9.52574 0.680412V42.4124C9.52339 42.5921 9.45095 42.7638 9.32386 42.8909C9.19676 43.018 9.02506 43.0904 8.84533 43.0928Z" fill="#F9C409"/>
<path d="M36.9693 28.5774C31.0157 28.5726 25.3073 26.2054 21.0975 21.9956C16.8877 17.7857 14.5205 12.0774 14.5157 6.12377C14.5157 5.94332 14.5874 5.77025 14.715 5.64265C14.8426 5.51505 15.0156 5.44336 15.1961 5.44336C15.3766 5.44336 15.5496 5.51505 15.6772 5.64265C15.8048 5.77025 15.8765 5.94332 15.8765 6.12377C15.8837 11.7157 18.1083 17.0766 22.0624 21.0307C26.0165 24.9848 31.3774 27.2094 36.9693 27.2166C37.1498 27.2166 37.3228 27.2882 37.4504 27.4158C37.578 27.5434 37.6497 27.7165 37.6497 27.897C37.6497 28.0774 37.578 28.2505 37.4504 28.3781C37.3228 28.5057 37.1498 28.5774 36.9693 28.5774Z" fill="#F9C409"/>
</svg>
