<svg width="30" height="30" viewBox="0 0 30 30" fill="none" xmlns="http://www.w3.org/2000/svg">
<path fill-rule="evenodd" clip-rule="evenodd" d="M9.1875 28.8188C11.0125 29.6063 12.9559 30 15.0176 30C17.0793 30 19.0168 29.6063 20.83 28.8188C22.6433 28.0312 24.2313 26.9562 25.5938 25.5938C26.9562 24.2313 28.0312 22.6375 28.8188 20.8125C29.6063 18.9875 30 17.0441 30 14.9824C30 12.9207 29.6063 10.9832 28.8188 9.16995C28.0312 7.35665 26.9562 5.76875 25.5938 4.40625C24.2313 3.04375 22.6437 1.96875 20.8312 1.18125C19.0187 0.39375 17.0783 0 15.01 0C12.9416 0 10.9979 0.39375 9.17873 1.18125C7.35958 1.96875 5.76875 3.04375 4.40625 4.40625C3.04375 5.76875 1.96875 7.35625 1.18125 9.16875C0.39375 10.9812 0 12.9217 0 14.99C0 17.0584 0.39375 19.0021 1.18125 20.8213C1.96875 22.6404 3.04375 24.2313 4.40625 25.5938C5.76875 26.9562 7.3625 28.0312 9.1875 28.8188ZM5.325 23.4375C6.9 22.3375 8.4625 21.4937 10.0125 20.9062C11.5625 20.3188 13.225 20.025 15 20.025C16.775 20.025 18.4438 20.3188 20.0063 20.9062C21.5688 21.4937 23.1375 22.3375 24.7125 23.4375C25.8125 22.0875 26.5938 20.725 27.0562 19.35C27.5187 17.975 27.75 16.525 27.75 15C27.75 11.375 26.5312 8.34375 24.0938 5.90625C21.6562 3.46875 18.625 2.25 15 2.25C11.375 2.25 8.34375 3.46875 5.90625 5.90625C3.46875 8.34375 2.25 11.375 2.25 15C2.25 16.525 2.4875 17.975 2.9625 19.35C3.4375 20.725 4.225 22.0875 5.325 23.4375ZM14.993 16.125C13.5477 16.125 12.3313 15.6289 11.3438 14.6368C10.3562 13.6446 9.8625 12.4259 9.8625 10.9805C9.8625 9.53518 10.3586 8.31875 11.3507 7.33125C12.3429 6.34375 13.5616 5.85 15.007 5.85C16.4523 5.85 17.6688 6.34608 18.6562 7.33822C19.6437 8.33037 20.1375 9.54912 20.1375 10.9945C20.1375 12.4398 19.6414 13.6562 18.6493 14.6437C17.6571 15.6312 16.4384 16.125 14.993 16.125ZM15 27.75C16.375 27.75 17.7188 27.55 19.0312 27.15C20.3438 26.75 21.6375 26.05 22.9125 25.05C21.6375 24.15 20.3375 23.4625 19.0125 22.9875C17.6875 22.5125 16.35 22.275 15 22.275C13.65 22.275 12.3125 22.5125 10.9875 22.9875C9.6625 23.4625 8.3625 24.15 7.0875 25.05C8.3625 26.05 9.65625 26.75 10.9688 27.15C12.2812 27.55 13.625 27.75 15 27.75ZM17.0812 13.0688C16.5438 13.6063 15.85 13.875 15 13.875C14.15 13.875 13.4563 13.6063 12.9187 13.0688C12.3813 12.5312 12.1125 11.8375 12.1125 10.9875C12.1125 10.1375 12.3813 9.44375 12.9187 8.90625C13.4563 8.36875 14.15 8.1 15 8.1C15.85 8.1 16.5438 8.36875 17.0812 8.90625C17.6187 9.44375 17.8875 10.1375 17.8875 10.9875C17.8875 11.8375 17.6187 12.5312 17.0812 13.0688Z" fill="#69EE53"/>
</svg>
