<svg width="34" height="30" viewBox="0 0 34 30" fill="none" xmlns="http://www.w3.org/2000/svg">
<path d="M17.7739 1.90064L14.5281 7.64341C15.5056 8.25864 16.4385 8.94146 17.3198 9.68681C17.4053 9.75914 17.4756 9.84751 17.5267 9.94688C17.5779 10.0462 17.6088 10.1547 17.6178 10.2659C17.6269 10.3772 17.6138 10.4892 17.5793 10.5954C17.5449 10.7017 17.4897 10.8001 17.417 10.8851C17.3444 10.9702 17.2556 11.0401 17.1557 11.091C17.0558 11.1419 16.9469 11.1727 16.8351 11.1817C16.7233 11.1907 16.6108 11.1776 16.504 11.1434C16.3972 11.1091 16.2983 11.0542 16.2128 10.9819C15.4136 10.3086 14.5699 9.68953 13.6872 9.12887L3.47141 27.1999H24.296C24.2553 26.4565 24.1921 25.7153 24.0806 24.987C24.0599 24.875 24.0621 24.76 24.0869 24.6489C24.1117 24.5378 24.1587 24.4328 24.2251 24.3401C24.2915 24.2474 24.376 24.1689 24.4734 24.1093C24.5709 24.0497 24.6794 24.0101 24.7925 23.9931C24.9056 23.976 25.021 23.9817 25.1319 24.0098C25.2427 24.038 25.3467 24.088 25.4378 24.1569C25.5289 24.2258 25.6051 24.3122 25.6619 24.411C25.7188 24.5098 25.7551 24.6189 25.7688 24.732C25.889 25.5504 25.9679 26.3743 26.005 27.2005H32.032C32.3718 27.2005 32.6977 27.3349 32.938 27.574C33.1783 27.8131 33.3133 28.1374 33.3133 28.4755C33.3133 28.8137 33.1783 29.138 32.938 29.3771C32.6977 29.6162 32.3718 29.7505 32.032 29.7505H1.28201C1.05819 29.7507 0.83824 29.6925 0.644061 29.5817C0.449881 29.4709 0.288248 29.3115 0.175255 29.1192C0.0622626 28.927 0.00185304 28.7086 4.19566e-05 28.4859C-0.00176913 28.2631 0.0550814 28.0438 0.164933 27.8498L15.5399 0.649776C15.7067 0.354975 15.9844 0.138188 16.3118 0.0471035C16.6392 -0.043981 16.9896 -0.0019013 17.2859 0.164086C17.5821 0.330073 17.7999 0.60637 17.8915 0.932196C17.983 1.25802 17.9407 1.60584 17.7739 1.90064ZM23.3518 21.7939C23.3844 21.9007 23.4379 22.0001 23.5091 22.0863C23.5804 22.1726 23.668 22.244 23.767 22.2966C23.866 22.3492 23.9744 22.3818 24.0861 22.3927C24.1977 22.4036 24.3105 22.3924 24.4178 22.36C24.5251 22.3275 24.625 22.2743 24.7117 22.2034C24.7984 22.1325 24.8702 22.0453 24.923 21.9468C24.9758 21.8483 25.0086 21.7404 25.0196 21.6293C25.0305 21.5182 25.0193 21.406 24.9867 21.2992C24.643 20.1759 24.2191 19.0785 23.7181 18.0154C23.6726 17.9111 23.6066 17.817 23.524 17.7385C23.4413 17.66 23.3437 17.5989 23.2368 17.5586C23.13 17.5184 23.0161 17.4999 22.902 17.5042C22.7878 17.5085 22.6757 17.5355 22.5722 17.5837C22.4688 17.6319 22.3761 17.7003 22.2996 17.7848C22.2232 17.8692 22.1646 17.9681 22.1272 18.0756C22.0898 18.183 22.0745 18.2968 22.0821 18.4102C22.0897 18.5236 22.1201 18.6344 22.1715 18.7359C22.6377 19.7259 23.0321 20.7479 23.3518 21.7939ZM19.8425 12.1484C19.6908 11.986 19.4813 11.889 19.2587 11.8781C19.0362 11.8672 18.8181 11.9434 18.6512 12.0902C18.4842 12.2371 18.3815 12.4431 18.3651 12.6643C18.3486 12.8854 18.4196 13.1042 18.563 13.274C19.2907 14.0939 19.9591 14.964 20.5633 15.8779C20.6249 15.9712 20.7043 16.0515 20.7971 16.1143C20.8898 16.177 20.9941 16.221 21.1039 16.2436C21.2138 16.2663 21.327 16.2672 21.4372 16.2463C21.5474 16.2254 21.6524 16.1831 21.7461 16.1218C21.8399 16.0605 21.9206 15.9815 21.9837 15.8892C22.0467 15.7969 22.0909 15.6931 22.1137 15.5838C22.1365 15.4745 22.1374 15.3618 22.1164 15.2522C22.0954 15.1425 22.0529 15.038 21.9913 14.9447C21.3426 13.9632 20.6245 13.0285 19.8425 12.1484Z" fill="#FF5A00"/>
</svg>
