<svg width="18" height="22" viewBox="0 0 18 22" fill="none" xmlns="http://www.w3.org/2000/svg">
<path d="M15.0281 14.4023V8.33228C15.0281 5.2848 12.755 2.76189 9.81241 2.36222V1.50792C9.81241 1.09327 9.47769 0.758545 9.06303 0.758545C8.64838 0.758545 8.31365 1.09327 8.31365 1.50792V2.33724C5.30614 2.67696 2.96308 5.23484 2.96308 8.32728V14.3973L1.14958 16.7053C0.974727 16.9302 0.939756 17.2399 1.06465 17.4947C1.18955 17.7545 1.44933 17.9143 1.73909 17.9143H12.3004C12.715 17.9143 13.0497 17.5796 13.0497 17.165C13.0497 16.7503 12.715 16.4156 12.3004 16.4156H3.27782L4.30197 15.1117C4.40689 14.9818 4.46184 14.8169 4.46184 14.647V8.33228C4.46184 5.83434 6.49516 3.79603 8.99809 3.79603C11.501 3.79603 13.5343 5.82935 13.5343 8.33228V14.662C13.5343 14.8319 13.5893 14.9918 13.6942 15.1266L15.6676 17.6396C15.8174 17.8294 16.0373 17.9243 16.2571 17.9243C16.4169 17.9243 16.5818 17.8744 16.7217 17.7645C17.0464 17.5097 17.1064 17.0351 16.8466 16.7103L15.0281 14.4023Z" fill="#686B6E"/>
<path d="M10.8763 18.0343C10.4616 18.0343 10.1269 18.369 10.1269 18.7837C10.1269 19.3132 9.69727 19.7429 9.16271 19.7429C8.62815 19.7429 8.2035 19.3132 8.2035 18.7837C8.2035 18.369 7.86878 18.0343 7.45412 18.0343C7.03947 18.0343 6.70474 18.369 6.70474 18.7837C6.70474 20.1425 7.80883 21.2416 9.16271 21.2416C10.5216 21.2416 11.6257 20.1375 11.6257 18.7837C11.6257 18.369 11.2909 18.0343 10.8763 18.0343Z" fill="#686B6E"/>
</svg>
