<svg width="31" height="39" viewBox="0 0 31 39" fill="none" xmlns="http://www.w3.org/2000/svg">
<path d="M29.2911 30.02H29.4161V36.344C29.4177 36.8712 28.9871 37.2996 28.4574 37.2996H3.24076C2.71098 37.2996 2.28044 36.8712 2.28044 36.344V30.02H2.40544M29.2911 30.02V29.895H2.40544V30.02M29.2911 30.02H2.40544M29.2911 30.02V36.344V36.3443C29.2925 36.8015 28.9188 37.1746 28.4574 37.1746H3.24076C2.77944 37.1746 2.40544 36.8015 2.40544 36.344V30.02M30.7637 8.80157L30.7637 8.8015C30.7234 8.70603 30.6643 8.62096 30.5926 8.54967L22.6973 0.659432L22.6971 0.659246C22.6269 0.589346 22.5429 0.532191 22.4504 0.493813C22.3588 0.455842 22.2577 0.434906 22.156 0.434906H3.24076C1.93834 0.434906 0.875 1.49048 0.875 2.78974V36.3424C0.875 37.6416 1.93834 38.6972 3.24076 38.6972H28.4574C29.7598 38.6972 30.8231 37.6416 30.8231 36.3424V29.2563V15.5046V9.09539C30.8231 9.06247 30.8167 9.0354 30.8119 9.01756C30.8099 9.00979 30.8084 9.00448 30.8073 9.00054C30.8054 8.99358 30.8047 8.99092 30.804 8.9866L30.6805 9.0062L30.8041 8.98738C30.8031 8.98091 30.8021 8.97308 30.801 8.96421C30.7957 8.9226 30.7874 8.8579 30.7637 8.80157ZM22.9212 8.3317V3.04358L28.2131 8.3317H22.9212ZM3.24076 1.96069H21.3892V9.0938C21.3892 9.51561 21.734 9.85589 22.1544 9.85589H29.2911V14.7425H2.80267H2.80221L2.40704 14.7401V2.79133C2.40704 2.33348 2.77971 1.96069 3.24076 1.96069ZM29.2927 28.4974H2.40704V16.2619L29.2927 16.2666V28.4974Z" fill="#4495C7" stroke="#4495C7" stroke-width="0.25"/>
<path d="M13.1114 24.7545L13.1115 24.7545C13.5056 24.4565 13.7788 24.0076 13.9409 23.4185L13.9728 23.3024L13.8579 23.2661L12.832 22.9428L12.703 22.9022L12.6726 23.034C12.5879 23.4019 12.4515 23.654 12.2754 23.8071L12.275 23.8075C12.0955 23.965 11.8835 24.044 11.6308 24.044C11.285 24.044 11.0099 23.9187 10.7961 23.6675C10.5872 23.4219 10.469 22.9899 10.469 22.3389C10.469 21.7289 10.5894 21.3153 10.8015 21.072C11.0179 20.8239 11.298 20.6992 11.6532 20.6992C11.9103 20.6992 12.1205 20.7698 12.2926 20.9063C12.4649 21.0429 12.5805 21.2303 12.6356 21.476L12.6634 21.5994L12.7864 21.5702L13.8348 21.3218L13.9619 21.2916L13.9262 21.166C13.8035 20.7337 13.6148 20.3913 13.3554 20.1486C12.9281 19.7457 12.3738 19.5493 11.7077 19.5493C10.9428 19.5493 10.3161 19.8011 9.83988 20.3087L9.83974 20.3088C9.36225 20.8195 9.13062 21.5274 9.13062 22.417C9.13062 23.2605 9.3616 23.9426 9.8371 24.4445C10.3105 24.9442 10.9172 25.1939 11.6436 25.1939C12.2279 25.1939 12.7203 25.0499 13.1114 24.7545Z" fill="#4495C7" stroke="#4495C7" stroke-width="0.25"/>
<path d="M15.7489 24.2279V24.3529H15.8739H16.7894H16.9144V24.2279V22.9975H18.1675H18.2925V22.8725V21.936V21.811H18.1675H16.9144V20.5805V20.4555H16.7894H15.8739H15.7489V20.5805V21.811H14.5006H14.3756V21.936V22.8725V22.9975H14.5006H15.7489V24.2279Z" fill="#4495C7" stroke="#4495C7" stroke-width="0.25"/>
<path d="M20.0271 24.2279V24.3529H20.1521H21.0676H21.1926V24.2279V22.9975H22.4441H22.5691V22.8725V21.936V21.811H22.4441H21.1926V20.5805V20.4555H21.0676H20.1521H20.0271V20.5805V21.811H18.7789H18.6539V21.936V22.8725V22.9975H18.7789H20.0271V24.2279Z" fill="#4495C7" stroke="#4495C7" stroke-width="0.25"/>
</svg>
