<svg width="44" height="55" viewBox="0 0 44 55" fill="none" xmlns="http://www.w3.org/2000/svg">
<path d="M22.675 21.325V2.19995H21.325V21.325H2.2V22.6749H21.325V41.7999H22.675V22.6749H41.8V21.325H22.675Z" fill="#4495C7"/>
<path d="M10.5252 16.8251H12.775V12.5501H17.05V10.2999H12.775V6.0249H10.5252V10.2999H6.2502V12.5501H10.5252V16.8251Z" fill="#4495C7"/>
<path d="M14.6731 27.28L11.6503 30.3028L8.62664 27.28L7.03604 28.8706L10.0588 31.8939L7.03604 34.9167L8.62664 36.5077L11.6503 33.4849L14.6727 36.5077L16.2633 34.9167L13.2409 31.8939L16.2637 28.8706L14.6731 27.28Z" fill="#4495C7"/>
<path d="M37.6402 10.2999H26.84V12.5501H37.6402V10.2999Z" fill="#4495C7"/>
<path d="M37.6402 32.7937H26.84V35.0439H37.6402V32.7937Z" fill="#4495C7"/>
<path d="M37.6402 28.7439H26.84V30.9941H37.6402V28.7439Z" fill="#4495C7"/>
</svg>
