<svg width="40" height="32" viewBox="0 0 40 32" fill="none" xmlns="http://www.w3.org/2000/svg">
<path d="M39.5873 16.7791C38.9567 14.7864 36.8301 13.6823 34.8374 14.3129C33.6544 14.6873 32.7886 15.5904 32.409 16.6783L21.2834 15.5701C21.2532 15.312 21.2005 15.0532 21.1192 14.7964C20.5199 12.9029 18.6873 11.7441 16.7873 11.9208L14.9782 6.20413C16.1922 5.38458 16.7787 3.83763 16.3142 2.37004C15.7488 0.583566 13.8423 -0.406343 12.0558 0.159032C10.2693 0.724407 9.27943 2.63097 9.8448 4.41744C10.3265 5.93969 11.7823 6.87964 13.3076 6.77579L15.1045 12.4534C13.4488 13.402 12.6166 15.4041 13.2158 17.2976C13.3017 17.5691 13.4132 17.8254 13.5464 18.065L5.16118 25.4636C4.35251 24.9346 3.32202 24.7592 2.32888 25.0734C0.573433 25.629 -0.399274 27.5025 0.156261 29.2579C0.711833 31.0134 2.58525 31.9861 4.34073 31.4305C6.09618 30.875 7.06889 29.0015 6.51335 27.2461C6.46279 27.0863 6.39786 26.9355 6.32655 26.7893L14.7179 19.3852C15.7476 20.1394 17.108 20.4133 18.4181 19.9986C19.7433 19.5792 20.7061 18.5543 21.1062 17.3263L32.2334 18.4347C32.2624 18.6444 32.3052 18.8543 32.3712 19.0628C33.0018 21.0555 35.1284 22.1597 37.1211 21.529C39.1138 20.8984 40.2179 18.7718 39.5873 16.7791Z" fill="#FA0EA9"/>
</svg>
