<svg width="21" height="21" viewBox="0 0 21 21" fill="none" xmlns="http://www.w3.org/2000/svg">
<path d="M10.5 21C16.29 21 21 16.29 21 10.5C21 4.7103 16.29 0 10.5 0C4.7103 0 0 4.7103 0 10.5C0 16.29 4.7103 21 10.5 21ZM10.5 2.1C15.1318 2.1 18.9 5.86819 18.9 10.5C18.9 15.1321 15.1318 18.9 10.5 18.9C5.86819 18.9 2.1 15.1318 2.1 10.5C2.1 5.86819 5.86819 2.1 10.5 2.1Z" fill="#686B6E"/>
<path d="M9.47038 10.7058C9.47616 10.7354 9.48745 10.7633 9.49611 10.7921C9.50661 10.8289 9.51527 10.8662 9.52997 10.9019C9.54388 10.9355 9.56305 10.9659 9.58037 10.9974C9.59586 11.0258 9.6082 11.0554 9.62657 11.0825C9.66175 11.135 9.70217 11.1835 9.74601 11.2287C9.75021 11.2331 9.75283 11.2381 9.75703 11.2426L13.957 15.4426C14.3671 15.8526 15.0317 15.8526 15.4417 15.4426C15.8518 15.0323 15.8518 14.3676 15.4417 13.9576L11.5496 10.065V5.84059C11.5496 5.26073 11.0795 4.79059 10.4996 4.79059C9.91978 4.79059 9.44965 5.26073 9.44965 5.84059V10.4997C9.44965 10.5687 9.45673 10.6378 9.47038 10.7058Z" fill="#686B6E"/>
</svg>
