<svg width="18" height="18" viewBox="0 0 18 18" fill="none" xmlns="http://www.w3.org/2000/svg">
<path d="M1.5 2.33333C1.5 1.8731 1.8731 1.5 2.33333 1.5H6.5C6.96024 1.5 7.33333 1.8731 7.33333 2.33333V9C7.33333 9.46024 6.96024 9.83333 6.5 9.83333H2.33333C1.8731 9.83333 1.5 9.46024 1.5 9V2.33333Z" stroke="#D0302F" stroke-width="1.5" stroke-linecap="round" stroke-linejoin="round"/>
<path d="M10.6667 9C10.6667 8.53976 11.0398 8.16667 11.5 8.16667H15.6667C16.1269 8.16667 16.5 8.53976 16.5 9V15.6667C16.5 16.1269 16.1269 16.5 15.6667 16.5H11.5C11.0398 16.5 10.6667 16.1269 10.6667 15.6667V9Z" stroke="#D0302F" stroke-width="1.5" stroke-linecap="round" stroke-linejoin="round"/>
<path d="M10.6667 2.33333C10.6667 1.8731 11.0398 1.5 11.5 1.5H15.6667C16.1269 1.5 16.5 1.8731 16.5 2.33333V4C16.5 4.46024 16.1269 4.83333 15.6667 4.83333H11.5C11.0398 4.83333 10.6667 4.46024 10.6667 4V2.33333Z" stroke="#D0302F" stroke-width="1.5" stroke-linecap="round" stroke-linejoin="round"/>
<path d="M1.5 14C1.5 13.5398 1.8731 13.1667 2.33333 13.1667H6.5C6.96024 13.1667 7.33333 13.5398 7.33333 14V15.6667C7.33333 16.1269 6.96024 16.5 6.5 16.5H2.33333C1.8731 16.5 1.5 16.1269 1.5 15.6667V14Z" stroke="#D0302F" stroke-width="1.5" stroke-linecap="round" stroke-linejoin="round"/>
</svg>
