<svg width="31" height="30" viewBox="0 0 31 30" fill="none" xmlns="http://www.w3.org/2000/svg">
<path d="M2.73529 30C1.58315 30 0.762566 29.4583 0.273528 28.375C-0.215509 27.2917 -0.0580224 26.3083 0.745988 25.4167L11.0241 13.75V2.5H8.86898C8.51256 2.5 8.22246 2.38334 7.98208 2.14167C7.74171 1.9 7.62567 1.6 7.62567 1.24167C7.62567 0.883335 7.74171 0.591669 7.98208 0.350002C8.22246 0.108335 8.51256 -0.0083313 8.86898 -0.0083313H22.131C22.4874 -0.0083313 22.7775 0.108335 23.0179 0.350002C23.2583 0.591669 23.3743 0.891669 23.3743 1.25C23.3743 1.60834 23.2583 1.9 23.0179 2.14167C22.7775 2.38334 22.4874 2.5 22.131 2.5H19.9759V13.75L30.254 25.4167C31.058 26.3083 31.2155 27.2917 30.7265 28.375C30.2374 29.4583 29.4168 30 28.2647 30H2.73529ZM2.23797 27.5H28.762L17.4893 14.6667V2.5H13.5107V14.6667L2.23797 27.5Z" fill="#A8A8A8"/>
</svg>
