<svg width="34" height="35" viewBox="0 0 34 35" fill="none" xmlns="http://www.w3.org/2000/svg">
<path d="M17.0223 34.9464C12.8513 34.9516 8.82473 33.4188 5.71308 30.6411C2.60143 27.8634 0.62318 24.036 0.156827 19.8911C0.12788 19.6346 0.200677 19.377 0.359582 19.1736C0.518487 18.9702 0.750823 18.8372 1.00669 18.8033L15.9728 17.146L8.82967 4.23236C8.76645 4.11727 8.72675 3.99074 8.71289 3.86016C8.69903 3.72958 8.71128 3.59754 8.74894 3.47173C8.78666 3.3461 8.8494 3.22939 8.93337 3.12862C9.01735 3.02784 9.12083 2.94509 9.23761 2.88533C11.5215 1.70647 14.0433 1.0616 16.6128 0.999363C19.1822 0.937125 21.7323 1.45914 24.0706 2.52604C26.4089 3.59294 28.4745 5.17686 30.1114 7.15836C31.7484 9.13986 32.9141 11.4672 33.5205 13.9648C34.127 16.4625 34.1584 19.0652 33.6124 21.5768C33.0664 24.0883 31.9572 26.4431 30.3685 28.4635C28.7798 30.4839 26.7531 32.1172 24.4412 33.2402C22.1293 34.3632 19.5926 34.9466 17.0223 34.9464ZM2.25174 20.6475C2.81016 23.7086 4.30701 26.5202 6.53481 28.6926C8.76262 30.865 11.611 32.2906 14.6853 32.7717C17.7595 33.2529 20.9073 32.7658 23.6923 31.378C26.4773 29.9902 28.7617 27.7704 30.2287 25.0263C31.6957 22.2821 32.2728 19.1496 31.8799 16.0628C31.487 12.9761 30.1436 10.088 28.036 7.79887C25.9283 5.50975 23.1607 3.93296 20.1168 3.28707C17.0729 2.64118 13.9035 2.95818 11.0478 4.19412L18.4034 17.4945C18.48 17.6364 18.5208 17.7949 18.5222 17.9562C18.5236 18.1175 18.4856 18.2767 18.4115 18.4199C18.3373 18.5632 18.2293 18.6861 18.0968 18.7781C17.9643 18.8701 17.8114 18.9283 17.6512 18.9477L2.25174 20.6475Z" fill="#B6F09C"/>
<path d="M1.13045 20.7622C0.904107 20.7626 0.68463 20.6845 0.509485 20.5411C0.334341 20.3977 0.214387 20.198 0.170104 19.9761C0.148857 19.8656 -1.95455 8.69414 9.23814 2.88533C9.46973 2.7653 9.73952 2.7422 9.98816 2.82109C10.2368 2.89998 10.4439 3.07441 10.5639 3.30601C10.6839 3.5376 10.7071 3.80739 10.6282 4.05603C10.5493 4.30466 10.3748 4.51177 10.1432 4.63179C0.289084 9.73097 2.01855 19.1899 2.09504 19.5894C2.12045 19.7158 2.1207 19.8459 2.0958 19.9724C2.07089 20.0989 2.02131 20.2193 1.94989 20.3266C1.87847 20.4339 1.78661 20.5261 1.67954 20.598C1.57248 20.6698 1.45232 20.7198 1.32592 20.7452C1.26144 20.757 1.19599 20.7627 1.13045 20.7622Z" fill="#FF5A00"/>
</svg>
