<svg width="57" height="23" viewBox="0 0 57 23" fill="none" xmlns="http://www.w3.org/2000/svg">
<path d="M18.3167 2.13708V5.30245C18.3167 5.49545 18.1944 5.66324 18.0143 5.73393C15.8729 6.57598 14.4027 8.49425 14.4027 11.7303C14.4027 14.9664 15.8729 16.8846 18.0143 17.7267C18.1938 17.7974 18.3167 17.9652 18.3167 18.1582V21.3235C18.3167 21.6321 18.0199 21.8509 17.7224 21.7685C13.2134 20.5128 10.4334 16.7592 10.4334 11.7303C10.4334 6.70136 13.2134 2.94779 17.7224 1.69209C18.0199 1.60973 18.3167 1.82854 18.3167 2.13708ZM31.5947 11.7303C31.5947 16.7592 28.8147 20.5128 24.3057 21.7685C24.0082 21.8515 23.7114 21.6327 23.7114 21.3235V18.1582C23.7114 17.9652 23.8337 17.7974 24.0138 17.7267C26.1552 16.8846 27.6254 14.9664 27.6254 11.7303C27.6254 8.49425 26.1552 6.57598 24.0138 5.73393C23.8343 5.66324 23.7114 5.49545 23.7114 5.30245V2.13708C23.7114 1.82854 24.0082 1.60973 24.3057 1.69209C28.8147 2.9484 31.5947 6.70198 31.5947 11.7303ZM8.23918 20.5491V13.8871C8.23918 13.4519 7.88638 13.0985 7.4506 13.0985H0.788576C0.353415 13.0985 0 13.4513 0 13.8871V20.5491C0 20.9842 0.3528 21.3377 0.788576 21.3377H7.4506C7.88638 21.3377 8.23918 20.9849 8.23918 20.5491ZM39.4202 18.2129C39.4202 18.7009 39.8154 19.0961 40.3034 19.0961H42.6255C42.8739 19.0961 43.0748 19.2971 43.0748 19.5454V21.9056C43.0748 22.1539 42.8739 22.3549 42.6255 22.3549H39.7859C37.4712 22.3549 35.8572 20.7408 35.8572 18.3954V13.7051C35.8572 13.2171 35.462 12.8219 34.9739 12.8219H33.9918C33.7435 12.8219 33.5425 12.6209 33.5425 12.3726V9.98167C33.5425 9.73336 33.7435 9.53237 33.9918 9.53237H34.9739C35.462 9.53237 35.8572 9.13716 35.8572 8.64914V3.95886C35.8572 1.61403 37.4712 0 39.7859 0H42.6262C42.8745 0 43.0755 0.200986 43.0755 0.449299V2.80888C43.0755 3.05719 42.8745 3.25818 42.6262 3.25818H40.3041C39.816 3.25818 39.4208 3.65339 39.4208 4.14141V8.64914C39.4208 9.95893 38.7816 10.6897 37.99 11.1771C38.7816 11.6645 39.4208 12.3953 39.4208 13.7051L39.4202 18.2129ZM51.1222 13.7051C51.1222 12.3953 51.7615 11.6645 52.5531 11.1771C51.7615 10.6897 51.1222 9.95893 51.1222 8.64914V4.14202C51.1222 3.654 50.7264 3.25818 50.2384 3.25818H47.9163C47.668 3.25818 47.467 3.05719 47.467 2.80888V0.449299C47.467 0.200986 47.668 0 47.9163 0H50.7565C53.0713 0 54.6853 1.61403 54.6853 3.95886V8.64914C54.6853 9.13716 55.0811 9.53298 55.5691 9.53298H56.5507C56.799 9.53298 57 9.73397 57 9.98228V12.3732C57 12.6215 56.799 12.8225 56.5507 12.8225H55.5685C55.0805 12.8225 54.6853 13.2177 54.6853 13.7057V18.396C54.6853 20.7415 53.0713 22.3555 50.7565 22.3555H47.9163C47.668 22.3555 47.467 22.1545 47.467 21.9062V19.546C47.467 19.2977 47.668 19.0967 47.9163 19.0967H50.2384C50.7264 19.0967 51.1216 18.7015 51.1216 18.2135L51.1222 13.7051Z" fill="#00ABFF"/>
</svg>
