<svg width="25" height="36" viewBox="0 0 25 36" fill="none" xmlns="http://www.w3.org/2000/svg">
<path d="M22.8374 30.3445H7.8756L19.4853 19.2532C19.7154 19.0341 19.8997 18.7648 20.026 18.4629C20.1522 18.1611 20.2175 17.8337 20.2175 17.5025C20.2175 17.1714 20.1522 16.844 20.026 16.5422C19.8997 16.2403 19.7154 15.9709 19.4853 15.7519L7.8756 4.66839H22.8374C23.4109 4.66839 23.961 4.42247 24.3666 3.98472C24.7722 3.54698 25 2.95327 25 2.3342C25 1.71514 24.7722 1.12143 24.3666 0.683681C23.961 0.245936 23.4109 1.31146e-05 22.8374 1.31053e-05H2.16987C1.73044 -0.00157583 1.30099 0.141357 0.938707 0.409778C0.57642 0.678199 0.298489 1.05937 0.141923 1.50254C-0.0146423 1.9457 -0.0424128 2.42983 0.0623096 2.89046C0.167032 3.35109 0.399278 3.76635 0.728121 4.08095L14.7888 17.5064L0.731726 30.9319C0.402882 31.2465 0.170636 31.6618 0.0659141 32.1224C-0.0388084 32.583 -0.0110378 33.0672 0.145528 33.5103C0.302093 33.9535 0.580024 34.3347 0.942311 34.6031C1.3046 34.8715 1.73405 35.0144 2.17348 35.0129H22.8374C23.4109 35.0129 23.961 34.7669 24.3666 34.3292C24.7722 33.8914 25 33.2977 25 32.6787C25 32.0596 24.7722 31.4659 24.3666 31.0281C23.961 30.5904 23.4109 30.3445 22.8374 30.3445Z" fill="#00CC99"/>
</svg>
