<svg width="39" height="45" viewBox="0 0 39 45" fill="none" xmlns="http://www.w3.org/2000/svg">
<path d="M38.6844 12.2963C38.6833 12.2868 38.6822 12.2773 38.6805 12.2683C38.6474 11.8433 38.4167 11.4569 38.0438 11.2418L20.3892 1.0487C19.9877 0.816857 19.4921 0.816857 19.09 1.0487L1.43487 11.2418C1.06247 11.4569 0.831194 11.8433 0.798154 12.2683C0.797034 12.2778 0.795354 12.2868 0.794234 12.2963C0.793114 12.3198 0.784714 12.3428 0.784714 12.3663V32.7531C0.784714 33.2173 1.03279 33.6463 1.43431 33.8781L19.0894 44.0713C19.104 44.0797 19.1208 44.0825 19.1354 44.0903C19.2059 44.1273 19.2793 44.1581 19.3566 44.1816C19.3823 44.1894 19.407 44.1989 19.4327 44.2051C19.5313 44.2292 19.6326 44.2454 19.7385 44.2454C19.8443 44.2454 19.9457 44.2292 20.0442 44.2051C20.07 44.1989 20.0952 44.1894 20.1204 44.1816C20.1977 44.1575 20.271 44.1273 20.3416 44.0903C20.3567 44.0825 20.373 44.0797 20.3875 44.0713L38.0426 33.8781C38.4442 33.6463 38.6922 33.2179 38.6922 32.7531V12.3669C38.6934 12.3428 38.6855 12.3204 38.6844 12.2963ZM19.7396 3.67342L34.863 12.4049L19.7396 21.1365L4.61567 12.4049L19.7396 3.67342ZM3.38367 14.6931L17.4626 22.8215C17.4083 22.8288 17.3546 22.8461 17.3047 22.8758L15.8364 23.7242C15.6292 23.8435 15.5581 24.1084 15.6779 24.3156C15.758 24.4545 15.9036 24.5323 16.0537 24.5323C16.127 24.5323 16.2015 24.5138 16.2698 24.4741L17.7382 23.6257C17.9302 23.5148 17.998 23.2807 17.9129 23.0819L18.441 23.3871V40.6967L3.38367 32.0033V14.6931ZM21.0382 40.6961V23.3865L21.5669 23.0813C21.4812 23.2801 21.549 23.5148 21.741 23.6257L23.2094 24.4741C23.2777 24.5138 23.3516 24.5323 23.4255 24.5323C23.575 24.5323 23.7206 24.4545 23.8013 24.3156C23.9211 24.1084 23.85 23.8435 23.6428 23.7242L22.1745 22.8758C22.1241 22.8461 22.0703 22.8293 22.016 22.8215L36.095 14.6925V32.0021L21.0382 40.6961Z" fill="#9157FB"/>
<path d="M32.4549 28.8113L30.9866 27.9629C30.78 27.8408 30.5145 27.9136 30.3953 28.1208C30.2754 28.328 30.3465 28.5929 30.5537 28.7121L32.0221 29.5605C32.0904 29.6003 32.1643 29.6188 32.2382 29.6188C32.3877 29.6188 32.5333 29.5409 32.614 29.4021C32.7333 29.1954 32.6621 28.9305 32.4549 28.8113Z" fill="#9157FB"/>
<path d="M35.3927 30.5069L33.9244 29.6585C33.7172 29.5376 33.4523 29.6093 33.333 29.8165C33.2132 30.0237 33.2843 30.2885 33.4915 30.4078L34.9598 31.2562C35.0282 31.296 35.1021 31.3145 35.176 31.3145C35.3255 31.3145 35.4711 31.2366 35.5518 31.0977C35.671 30.8911 35.5999 30.6262 35.3927 30.5069Z" fill="#9157FB"/>
<path d="M29.5177 27.1156L28.0494 26.2672C27.8428 26.1462 27.5773 26.2179 27.4581 26.4251C27.3382 26.6323 27.4093 26.8972 27.6165 27.0165L29.0849 27.8649C29.1532 27.9046 29.2271 27.9231 29.301 27.9231C29.4505 27.9231 29.5961 27.8453 29.6768 27.7069C29.7961 27.4997 29.7249 27.2349 29.5177 27.1156Z" fill="#9157FB"/>
<path d="M26.5806 25.4199L25.1122 24.5715C24.9045 24.45 24.6402 24.5217 24.5209 24.7294C24.401 24.9366 24.4722 25.2015 24.6794 25.3208L26.1477 26.1692C26.216 26.2089 26.2905 26.2274 26.3638 26.2274C26.5134 26.2274 26.659 26.1496 26.7396 26.0107C26.8589 25.8041 26.7878 25.5392 26.5806 25.4199Z" fill="#9157FB"/>
<path d="M5.55536 29.6597L4.08704 30.507C3.87984 30.6262 3.80872 30.8911 3.92856 31.0983C4.00864 31.2372 4.15424 31.315 4.30376 31.315C4.37712 31.315 4.4516 31.2966 4.51992 31.2568L5.98824 30.4095C6.19544 30.2902 6.26656 30.0254 6.14672 29.8182C6.02688 29.6104 5.76088 29.5387 5.55536 29.6597Z" fill="#9157FB"/>
<path d="M14.3675 24.572L12.8986 25.4204C12.6914 25.5397 12.6203 25.8046 12.7402 26.0118C12.8202 26.1507 12.9658 26.2285 13.1159 26.2285C13.1893 26.2285 13.2638 26.21 13.3321 26.1703L14.801 25.3219C15.0082 25.2026 15.0793 24.9377 14.9594 24.7305C14.8385 24.5216 14.5736 24.45 14.3675 24.572Z" fill="#9157FB"/>
<path d="M8.49312 27.964L7.0248 28.8113C6.8176 28.9306 6.74648 29.1954 6.86632 29.4026C6.9464 29.5415 7.092 29.6194 7.24208 29.6194C7.31544 29.6194 7.38992 29.6009 7.45824 29.5611L8.92656 28.7138C9.13376 28.5946 9.20488 28.3297 9.08504 28.1225C8.96464 27.9147 8.6992 27.8419 8.49312 27.964Z" fill="#9157FB"/>
<path d="M11.4303 26.2677L9.96199 27.1161C9.75479 27.2354 9.68367 27.5003 9.80351 27.7075C9.88359 27.8464 10.0292 27.9237 10.1793 27.9237C10.2526 27.9237 10.3271 27.9052 10.3954 27.8654L11.8638 27.017C12.071 26.8977 12.1421 26.6329 12.0222 26.4257C11.9013 26.2185 11.6364 26.1468 11.4303 26.2677Z" fill="#9157FB"/>
</svg>
