<svg width="28" height="28" viewBox="0 0 28 28" fill="none" xmlns="http://www.w3.org/2000/svg">
<path d="M9.3625 23.3333C8.89583 23.3333 8.4875 23.1583 8.1375 22.8083C7.7875 22.4583 7.6125 22.05 7.6125 21.5833V18.6667H11.2292V14.9625C10.4903 15.0208 9.75139 14.9188 9.0125 14.6563C8.27361 14.3938 7.6125 13.9806 7.02917 13.4167V11.725H5.57083L1.75 7.90417C2.45 7.24306 3.28611 6.70347 4.25833 6.28542C5.23056 5.86736 6.22222 5.65833 7.23333 5.65833C7.81667 5.65833 8.48264 5.75069 9.23125 5.93542C9.97986 6.12014 10.6458 6.41667 11.2292 6.825V4.66667H24.5V20.2708C24.5 21.1264 24.2035 21.8507 23.6104 22.4438C23.0174 23.0368 22.2931 23.3333 21.4375 23.3333H9.3625ZM12.9792 18.6667H20.125V20.2708C20.125 20.6597 20.2465 20.9757 20.4896 21.2188C20.7326 21.4618 21.0486 21.5833 21.4375 21.5833C21.8264 21.5833 22.1424 21.4618 22.3854 21.2188C22.6285 20.9757 22.75 20.6597 22.75 20.2708V6.41667H12.9792V8.07917L20.0083 15.1083V16.3625H18.7542L15.0792 12.6875L14.5833 13.2708C14.3306 13.5625 14.0778 13.7861 13.825 13.9417C13.5722 14.0972 13.2903 14.2431 12.9792 14.3792V18.6667ZM6.35833 9.975H8.77917V12.5708C9.10972 12.7847 9.43542 12.9451 9.75625 13.0521C10.0771 13.159 10.4028 13.2125 10.7333 13.2125C11.2194 13.2125 11.7153 13.0813 12.2208 12.8188C12.7264 12.5563 13.0958 12.2889 13.3292 12.0167L13.825 11.4333L11.8125 9.42083C11.1903 8.79861 10.4903 8.30764 9.7125 7.94792C8.93472 7.5882 8.10833 7.40833 7.23333 7.40833C6.70833 7.40833 6.23194 7.47153 5.80417 7.59792C5.37639 7.72431 4.93889 7.89444 4.49167 8.10833L6.35833 9.975ZM18.375 20.4167H9.3625V21.5833H18.7833C18.6667 21.4667 18.5694 21.3063 18.4917 21.1021C18.4139 20.8979 18.375 20.6694 18.375 20.4167Z" fill="#D428FF"/>
</svg>
