<svg width="43" height="51" viewBox="0 0 43 51" fill="none" xmlns="http://www.w3.org/2000/svg">
<g filter="url(#filter0_dd_0_970)">
<path d="M17.0285 21.3333V24C17.0285 26.2091 18.8194 28 21.0285 28H22.1714C24.3805 28 26.1714 26.2091 26.1714 24V21.3333M17.0285 21.3333V20.1272C17.0285 19.4856 16.7092 18.8946 16.2408 18.456C14.6191 16.9377 13.6 14.7404 13.6 12.2963C13.6 7.71438 17.1817 4 21.6 4C26.0183 4 29.6 7.71438 29.6 12.2963C29.6 14.7404 28.5808 16.9377 26.9592 18.456C26.4907 18.8946 26.1714 19.4856 26.1714 20.1272V21.3333M17.0285 21.3333H26.1714" stroke="#FFD147" stroke-width="2" stroke-linecap="round" stroke-linejoin="round"/>
</g>
<defs>
<filter id="filter0_dd_0_970" x="-6.40002" y="-2" width="56" height="56" filterUnits="userSpaceOnUse" color-interpolation-filters="sRGB">
<feFlood flood-opacity="0" result="BackgroundImageFix"/>
<feColorMatrix in="SourceAlpha" type="matrix" values="0 0 0 0 0 0 0 0 0 0 0 0 0 0 0 0 0 0 127 0" result="hardAlpha"/>
<feMorphology radius="4" operator="erode" in="SourceAlpha" result="effect1_dropShadow_0_970"/>
<feOffset dy="4"/>
<feGaussianBlur stdDeviation="3"/>
<feColorMatrix type="matrix" values="0 0 0 0 1 0 0 0 0 0.819608 0 0 0 0 0.278431 0 0 0 0.16 0"/>
<feBlend mode="normal" in2="BackgroundImageFix" result="effect1_dropShadow_0_970"/>
<feColorMatrix in="SourceAlpha" type="matrix" values="0 0 0 0 0 0 0 0 0 0 0 0 0 0 0 0 0 0 127 0" result="hardAlpha"/>
<feMorphology radius="3" operator="erode" in="SourceAlpha" result="effect2_dropShadow_0_970"/>
<feOffset dy="10"/>
<feGaussianBlur stdDeviation="7.5"/>
<feColorMatrix type="matrix" values="0 0 0 0 1 0 0 0 0 0.819608 0 0 0 0 0.278431 0 0 0 0.16 0"/>
<feBlend mode="normal" in2="effect1_dropShadow_0_970" result="effect2_dropShadow_0_970"/>
<feBlend mode="normal" in="SourceGraphic" in2="effect2_dropShadow_0_970" result="shape"/>
</filter>
</defs>
</svg>
