<svg width="37" height="37" viewBox="0 0 37 37" fill="none" xmlns="http://www.w3.org/2000/svg">
<path d="M16.25 16.25L19.3787 13.1213C20.5502 11.9497 22.4497 11.9497 23.6213 13.1213L23.8787 13.3787C25.0502 14.5503 25.0502 16.4497 23.8787 17.6213L20.75 20.75M16.25 16.25L5.62129 26.8787C4.44972 28.0503 4.44972 29.9497 5.62129 31.1213L5.87865 31.3787C7.05023 32.5503 8.94972 32.5503 10.1213 31.3787L20.75 20.75M16.25 16.25L20.75 20.75M12.949 13.0358L9.49997 11.578M17.5098 8.47249L16.1155 5M23.9682 8.47249L25.3625 5M28.5267 13.0303L31.984 11.5924M28.5267 19.4698L32 20.8691M23.9628 24.0298L25.3626 27.5" stroke="#2DA791" stroke-width="1.5" stroke-linecap="round" stroke-linejoin="round"/>
</svg>
