<svg width="47" height="59" viewBox="0 0 47 59" fill="none" xmlns="http://www.w3.org/2000/svg">
<path d="M40.7368 15.666H31.3302V6.26368C26.1104 4.0998 20.5014 4.25913 15.6632 6.26368V15.666H6.26321C4.0998 20.8863 4.25913 26.4944 6.26321 31.334H15.6632V40.7372C20.8835 42.9007 26.4925 42.7413 31.3302 40.7372V31.334H40.7368C42.8997 26.1123 42.7408 20.5037 40.7368 15.666ZM15.6632 26.634V28.2005H8.4849C7.60929 25.1159 7.60929 21.8813 8.4849 18.7995H23.4967V15.666H18.7967V8.48584C20.3265 8.0525 21.9053 7.83301 23.5061 7.83301C25.0999 7.83301 26.6701 8.05203 28.1967 8.4849V20.3665C28.1967 21.2318 27.4945 21.933 26.6302 21.933H20.3637C17.7688 21.9335 15.6632 24.0377 15.6632 26.634ZM38.5146 28.2005H23.4972V31.334H28.1972V38.5151C26.6673 38.948 25.09 39.167 23.4882 39.167C21.8954 39.167 20.3242 38.948 18.7976 38.5151V26.634C18.7976 25.7673 19.4993 25.067 20.3641 25.067H26.6302C29.2251 25.067 31.3302 22.9633 31.3302 20.367V18.7995H38.5146C39.3902 21.8832 39.3902 25.1173 38.5146 28.2005Z" fill="#FAC60B"/>
<path d="M22.7132 13.3165C23.5784 13.3165 24.2797 12.6152 24.2797 11.75C24.2797 10.8849 23.5784 10.1835 22.7132 10.1835C21.8481 10.1835 21.1467 10.8849 21.1467 11.75C21.1467 12.6152 21.8481 13.3165 22.7132 13.3165Z" fill="#FAC60B"/>
<path d="M24.2797 36.8165C25.1449 36.8165 25.8462 36.1152 25.8462 35.25C25.8462 34.3849 25.1449 33.6835 24.2797 33.6835C23.4145 33.6835 22.7132 34.3849 22.7132 35.25C22.7132 36.1152 23.4145 36.8165 24.2797 36.8165Z" fill="#FAC60B"/>
</svg>
