<svg width="40" height="40" viewBox="0 0 40 40" fill="none" xmlns="http://www.w3.org/2000/svg">
<path d="M18.4375 18.4375L20.6102 16.2648C21.4238 15.4512 22.7429 15.4512 23.5565 16.2648L23.7352 16.4435C24.5488 17.2571 24.5488 18.5762 23.7352 19.3898L21.5625 21.5625M18.4375 18.4375L11.0565 25.8185C10.2429 26.6321 10.2429 27.9512 11.0565 28.7648L11.2352 28.9435C12.0488 29.7571 13.3679 29.7571 14.1815 28.9435L21.5625 21.5625M18.4375 18.4375L21.5625 21.5625M16.1452 16.2054L13.75 15.1931M19.3124 13.0365L18.3441 10.625M23.7974 13.0365L24.7657 10.625M26.963 16.2016L29.3639 15.203M26.963 20.6734L29.375 21.6452M23.7936 23.8401L24.7658 26.25" stroke="#202327" stroke-width="1.5" stroke-linecap="round" stroke-linejoin="round"/>
</svg>
