<svg width="16" height="18" viewBox="0 0 16 18" fill="none" xmlns="http://www.w3.org/2000/svg">
<path d="M10.0226 12.7136C9.79661 13.0894 9.66665 13.5295 9.66665 14C9.66665 15.3807 10.7859 16.5 12.1666 16.5C13.5474 16.5 14.6666 15.3807 14.6666 14C14.6666 12.6193 13.5474 11.5 12.1666 11.5C11.2564 11.5 10.4598 11.9865 10.0226 12.7136ZM10.0226 12.7136L5.97737 10.2864M5.97737 10.2864C6.20335 9.9106 6.33331 9.47048 6.33331 9C6.33331 8.52952 6.20335 8.0894 5.97737 7.71357M5.97737 10.2864C5.54016 11.0135 4.74355 11.5 3.83331 11.5C2.4526 11.5 1.33331 10.3807 1.33331 9C1.33331 7.61929 2.4526 6.5 3.83331 6.5C4.74355 6.5 5.54016 6.98645 5.97737 7.71357M5.97737 7.71357L10.0226 5.28643M10.0226 5.28643C10.4598 6.01355 11.2564 6.5 12.1666 6.5C13.5474 6.5 14.6666 5.38071 14.6666 4C14.6666 2.61929 13.5474 1.5 12.1666 1.5C10.7859 1.5 9.66665 2.61929 9.66665 4C9.66665 4.47048 9.79661 4.9106 10.0226 5.28643Z" stroke="#686B6E" stroke-width="1.5" stroke-linecap="round" stroke-linejoin="round"/>
</svg>
