<svg width="44" height="44" viewBox="0 0 44 44" fill="none" xmlns="http://www.w3.org/2000/svg">
<path d="M8.57083 18.7458L13.4292 20.8083C13.9792 19.7083 14.5674 18.6236 15.1938 17.5541C15.8201 16.4847 16.4847 15.4611 17.1875 14.4833L13.5667 13.7499L8.57083 18.7458ZM15.6292 22.4583L21.725 28.5541C23.4667 27.7597 25.1014 26.8583 26.6292 25.8499C28.1569 24.8416 29.3944 23.8638 30.3417 22.9166C32.8167 20.4416 34.6347 17.9055 35.7958 15.3083C36.9569 12.7111 37.5833 9.77772 37.675 6.50828C34.4056 6.59995 31.4722 7.22633 28.875 8.38745C26.2778 9.54856 23.7417 11.3666 21.2667 13.8416C20.3194 14.7888 19.3417 16.0263 18.3333 17.5541C17.325 19.0819 16.4236 20.7166 15.6292 22.4583ZM26.125 18.0583C25.5139 17.4472 25.2083 16.6909 25.2083 15.7895C25.2083 14.8881 25.5139 14.1319 26.125 13.5208C26.7361 12.9097 27.4924 12.6041 28.3938 12.6041C29.2951 12.6041 30.0514 12.9097 30.6625 13.5208C31.2736 14.1319 31.5792 14.8881 31.5792 15.7895C31.5792 16.6909 31.2736 17.4472 30.6625 18.0583C30.0514 18.6694 29.2951 18.9749 28.3938 18.9749C27.4924 18.9749 26.7361 18.6694 26.125 18.0583ZM25.4375 35.6124L30.4333 30.6166L29.7 26.9958C28.7222 27.6986 27.6986 28.3631 26.6292 28.9895C25.5597 29.6159 24.475 30.2041 23.375 30.7541L25.4375 35.6124ZM40.3792 3.80411C40.6542 7.95967 40.1347 11.7486 38.8208 15.1708C37.5069 18.593 35.3375 21.8166 32.3125 24.8416L32.2208 24.9333L32.1292 25.0249L33.1375 30.0666C33.2292 30.5249 33.2063 30.968 33.0688 31.3958C32.9313 31.8236 32.6944 32.2055 32.3583 32.5416L24.5208 40.4249L20.625 31.3499L12.8333 23.5583L3.75833 19.6624L11.6417 11.8249C11.9778 11.4888 12.3597 11.252 12.7875 11.1145C13.2153 10.977 13.6583 10.9541 14.1167 11.0458L19.1583 12.0541C19.1889 12.0236 19.2194 12.0006 19.25 11.9854C19.2806 11.9701 19.3111 11.9472 19.3417 11.9166C22.3667 8.89161 25.5903 6.71453 29.0125 5.38536C32.4347 4.0562 36.2236 3.52911 40.3792 3.80411ZM6.82917 29.1041C7.89861 28.0347 9.20486 27.4923 10.7479 27.477C12.291 27.4618 13.5972 27.9888 14.6667 29.0583C15.7361 30.1277 16.2632 31.434 16.2479 32.977C16.2326 34.5201 15.6903 35.8263 14.6208 36.8958C13.8264 37.6902 12.5965 38.3472 10.9313 38.8666C9.26597 39.3861 6.76806 39.8749 3.4375 40.3333C3.89583 37.0027 4.37708 34.4972 4.88125 32.8166C5.38542 31.1361 6.03472 29.8986 6.82917 29.1041ZM8.75417 31.0749C8.32639 31.5333 7.94444 32.2513 7.60833 33.2291C7.27222 34.2069 6.98194 35.4597 6.7375 36.9874C8.26528 36.743 9.51806 36.4527 10.4958 36.1166C11.4736 35.7805 12.1917 35.3986 12.65 34.9708C13.2306 34.4513 13.5285 33.802 13.5437 33.0229C13.559 32.2437 13.2917 31.5638 12.7417 30.9833C12.1611 30.4333 11.4812 30.1659 10.7021 30.1812C9.92292 30.1965 9.27361 30.4944 8.75417 31.0749Z" fill="#28E6FF"/>
</svg>
