<svg width="43" height="54" viewBox="0 0 43 54" fill="none" xmlns="http://www.w3.org/2000/svg">
<path d="M21.8517 4.10617C12.6639 4.10617 5.18923 11.6161 5.18923 20.8466C5.18923 24.043 6.08922 27.1439 7.79417 29.8296L5.09506 36.9533C5.02798 37.13 5.07356 37.3291 5.2103 37.4587C5.29845 37.5425 5.41326 37.5866 5.52936 37.5866C5.59343 37.5866 5.65836 37.5736 5.71942 37.546L12.3247 34.576C15.13 36.5468 18.4186 37.5866 21.8517 37.5866C31.04 37.5866 38.5147 30.0767 38.5147 20.8466C38.5147 11.6161 31.0404 4.10617 21.8517 4.10617ZM21.8517 35.1169C18.8495 35.1169 15.9766 34.1837 13.5446 32.4177C13.2023 32.1698 12.7985 32.0384 12.3771 32.0384C12.0942 32.0384 11.8203 32.0972 11.5631 32.213L9.10309 33.3193L10.1755 30.4871C10.4038 29.8871 10.3299 29.2097 9.97857 28.6744C8.45465 26.3464 7.64883 23.6399 7.64883 20.8466C7.64883 17.0415 9.1276 13.4598 11.8138 10.7611C14.4996 8.06243 18.0652 6.57635 21.8522 6.57635C29.6846 6.57635 36.0564 12.9782 36.0564 20.8466C36.0564 28.7155 29.6842 35.1169 21.8517 35.1169Z" fill="#2DA691"/>
<path d="M15.79 21.451H20.2999V19.831H15.79V17.8502H20.7032V16.1987H13.8942V25.5264H20.9298V23.8494H15.79V21.451Z" fill="#2DA691"/>
<path d="M28.8551 20.8941C28.4982 20.6116 27.9633 20.3856 27.2495 20.2172L25.6202 19.831C24.9912 19.6832 24.5805 19.5545 24.3866 19.4448C24.0856 19.2802 23.9346 19.0313 23.9346 18.6978C23.9346 18.3349 24.0873 18.0524 24.393 17.8498C24.6988 17.6472 25.1077 17.5461 25.6202 17.5461C26.0803 17.5461 26.4661 17.6243 26.7761 17.7803C27.2405 18.0166 27.4907 18.4153 27.5251 18.9765H29.3896C29.3552 17.985 28.9889 17.229 28.2893 16.708C27.5896 16.187 26.7447 15.9265 25.7544 15.9265C24.5685 15.9265 23.6698 16.203 23.0579 16.7556C22.446 17.3081 22.1394 18.0023 22.1394 18.8374C22.1394 19.7528 22.4524 20.4258 23.0781 20.8561C23.4475 21.1136 24.1264 21.3516 25.1137 21.5711L26.119 21.7927C26.7077 21.9192 27.1369 22.0648 27.4082 22.2294C27.6787 22.3983 27.8145 22.6364 27.8145 22.9444C27.8145 23.4719 27.5372 23.8326 26.9846 24.0265C26.6931 24.1276 26.3134 24.1786 25.846 24.1786C25.066 24.1786 24.5151 23.9868 24.1939 23.6028C24.0181 23.3919 23.8998 23.0731 23.84 22.6472H21.988C21.988 23.6174 22.3376 24.3799 23.0381 24.935C23.7386 25.4893 24.7 25.7671 25.9221 25.7671C27.1188 25.7671 28.0454 25.4854 28.7012 24.9225C29.3569 24.3588 29.6846 23.6516 29.6846 22.7992C29.685 21.9681 29.409 21.333 28.8551 20.8941Z" fill="#2DA691"/>
</svg>
