<svg width="24" height="24" viewBox="0 0 24 24" fill="none" xmlns="http://www.w3.org/2000/svg">
<path d="M11.0809 4.64069C11.421 3.78644 12.5793 3.78644 12.9194 4.64069L14.4 8.35972C14.5434 8.71985 14.8676 8.96591 15.2397 8.99708L19.0827 9.31896C19.9655 9.39289 20.3234 10.5438 19.6509 11.1457L16.7229 13.7661C16.4393 14.0198 16.3155 14.4179 16.4021 14.7973L17.2967 18.7153C17.5022 19.6152 16.5651 20.3265 15.8093 19.8443L12.5191 17.7447C12.2005 17.5414 11.7998 17.5414 11.4812 17.7447L8.19104 19.8443C7.43529 20.3265 6.4982 19.6152 6.70367 18.7153L7.59822 14.7973C7.68485 14.4179 7.56102 14.0198 7.27749 13.7661L4.34949 11.1457C3.67694 10.5438 4.03488 9.39289 4.91762 9.31896L8.76067 8.99708C9.13281 8.96591 9.45698 8.71985 9.60035 8.35972L11.0809 4.64069Z" stroke="#686B6E" stroke-width="1.5" stroke-linecap="round" stroke-linejoin="round"/>
</svg>
