<svg width="24" height="24" viewBox="0 0 24 24" fill="none" xmlns="http://www.w3.org/2000/svg">
<path d="M10.5 10.5L12.5858 8.41421C13.3668 7.63316 14.6332 7.63317 15.4142 8.41421L15.5858 8.58579C16.3668 9.36684 16.3668 10.6332 15.5858 11.4142L13.5 13.5M10.5 10.5L3.41422 17.5858C2.63317 18.3668 2.63317 19.6332 3.41422 20.4142L3.58579 20.5858C4.36684 21.3668 5.63317 21.3668 6.41422 20.5858L13.5 13.5M10.5 10.5L13.5 13.5M8.29934 8.35722L6 7.38534M11.3399 5.31499L10.4104 3M15.6455 5.31499L16.575 3M18.6845 8.35353L20.9894 7.3949M18.6845 12.6465L21 13.5794M15.6419 15.6865L16.5751 18" stroke="#686B6E" stroke-width="1.5" stroke-linecap="round" stroke-linejoin="round"/>
</svg>
