<svg width="43" height="35" viewBox="0 0 43 35" fill="none" xmlns="http://www.w3.org/2000/svg">
<path d="M0.735027 29.9613H11.7604C12.1084 29.9574 12.3938 29.6707 12.3938 29.3211V27.7502C17.3826 30.6486 14.7279 29.1091 18.1411 31.1277L12.3938 34.513V32.9342C12.3938 32.5847 12.1084 32.298 11.7604 32.298H0.738937V29.9691L0.735027 29.9613ZM5.30549 24.1882C5.34849 24.2196 5.28594 24.3571 6.08352 17.4804V17.4764L4.80504 18.042C4.41407 18.2108 3.96836 17.9595 3.92145 17.5236C2.7759 6.51146 14.4738 -1.457 24.076 4.21007C35.3595 10.8668 31.657 28.681 18.3405 29.7531H18.3444C18.3444 29.7531 18.3405 29.7531 18.3366 29.7531C19.7167 30.5622 20.0412 30.6329 20.0412 31.1198C20.0412 31.5715 19.6972 31.6854 19.1693 31.9956V32.0035C34.5423 30.1459 38.2527 9.04849 24.5491 1.81443C12.9803 -4.28072 -0.402701 5.88702 1.80629 18.8235C1.85321 19.1141 1.70073 19.3969 1.43487 19.5108L0 20.147C5.52443 24.3492 5.30549 24.2314 5.3094 24.1882H5.30549ZM37.2518 28.2451H37.2479V29.816C37.2479 30.1655 36.9625 30.4522 36.6145 30.4522H30.226L30.2299 32.785H36.6145C36.9625 32.785 37.2479 33.0717 37.2479 33.4212V35C43.1398 31.5322 43.0343 31.6382 42.9912 31.6147C43.0343 31.5872 43.1398 31.7011 37.2518 28.2411V28.2451ZM11.3108 16.0665C11.3108 12.7009 14.0046 9.95962 17.3161 9.95962C20.6277 9.95962 23.3215 12.6969 23.3215 16.0665C23.3215 19.4362 20.6277 22.1735 17.3161 22.1735C14.0046 22.1735 11.3108 19.4362 11.3108 16.0665ZM14.9625 16.5339C16.6163 18.0695 16.6046 18.1362 16.9291 18.1362C17.2536 18.1362 17.1988 18.1087 19.8262 15.7484C20.4478 15.1947 19.6033 14.2364 18.9817 14.802L16.9408 16.636L15.8265 15.6031C15.2166 15.0415 14.3487 15.9684 14.9664 16.5378L14.9625 16.5339Z" fill="#9157FB"/>
</svg>
