<svg width="50" height="27" viewBox="0 0 50 27" fill="none" xmlns="http://www.w3.org/2000/svg">
<path d="M13.3359 21.0482C14.9828 22.2911 17.026 23.3099 19.2985 23.3099V25.0793C16.837 25.0793 14.3371 24.0974 11.9629 22.2164C11.477 22.5877 10.9782 22.9267 10.4673 23.2322C8.41727 24.4579 6.27599 25.0793 4.10281 25.0793V23.3099C6.34604 23.3099 8.56711 22.5212 10.6107 21.0343C10.3942 20.8268 10.179 20.6119 9.9653 20.389C7.60695 17.9294 5.53829 14.6361 4.28977 11.3536L5.92643 10.7194C7.09349 13.7878 9.02478 16.8637 11.2251 19.1585C11.4601 19.4036 11.713 19.6548 11.9823 19.9064C12.742 19.2061 13.4696 18.4037 14.1557 17.5037C16.6314 14.2568 18.1822 10.176 18.3963 6.4186H0V4.64913H10.8241V0.319093H12.5772V4.64913H23.4013V6.4186H20.1517C19.9376 10.5514 18.25 15.0353 15.545 18.5829C14.8516 19.4923 14.1137 20.3154 13.3359 21.0482ZM50 25.0793H47.7851L45.227 18.1522H35.3536L32.8579 25.0793H30.643L39.3466 1.92069H41.3431L50 25.0793ZM44.5563 16.3102L40.7816 5.90376C40.5734 5.33706 40.4175 4.78086 40.3136 4.235H40.2512C40.1888 4.58138 40.103 4.92529 39.9939 5.26621C39.8847 5.60744 38.5667 9.28867 36.0398 16.3102L44.5563 16.3102ZM32.5527 0L21.4626 27H23.2875L34.44 0H32.5527Z" fill="#B6F09C"/>
</svg>
